# File created by Blade
# Date/Time:  Tue Sep 23 19:15:59 2014
# Frame Rate: 120.000 fps
#------------------------------------------------------
:FULLY-SPECIFIED
:DEGREES
1388
root 2.629715 32.709640 -5.592158 52.698998 -42.882605 -33.015298
Spine -34.588439 -12.509361 27.937380
Head 1.372808 -8.899476 6.976225
LeftShoulder 9.286482 41.413518 31.468264
LeftArm 88.470792 25.214152 -37.489260
LeftForeArm -0.807816 -0.000000 57.562961
LeftHand 49.745503 -0.000000 -11.807422
LeftHandThumb1 -26.253704 0.000000 33.147579
RightShoulder -4.849861 -47.381128 -16.891700
RightArm 62.975146 -5.024519 76.350032
RightForeArm 24.908545 -0.000000 82.061786
RightHand 6.612362 -0.000000 12.414911
RightHandThumb1 -24.326973 -0.000000 -32.862282
LeftUpLeg -41.354242 14.189367 9.876192
LeftLeg 28.438705 -0.000000 -0.000000
LeftFoot -18.127613 15.944767 3.497715
LeftToeBase 4.134324 -0.000000 -0.000000
RightUpLeg -164.429025 -17.982449 26.908206
RightLeg 126.401014 -0.000000 -0.000000
RightFoot 38.922539 -20.262062 10.942366
RightToeBase 43.861634 -0.000000 -0.000000
1389
root 2.634010 32.714372 -5.600907 52.732430 -42.692659 -33.081190
Spine -34.663203 -12.652001 28.112552
Head 1.377504 -8.939425 6.839864
LeftShoulder 9.289981 41.452139 31.391777
LeftArm 88.544003 25.230365 -37.448815
LeftForeArm -1.338648 -0.000000 57.495847
LeftHand 49.828116 -0.000000 -11.802778
LeftHandThumb1 -26.253704 0.000000 33.147579
RightShoulder -4.749681 -47.329751 -16.970691
RightArm 62.986854 -5.003038 76.355902
RightForeArm 24.890085 -0.000000 81.940284
RightHand 6.794129 -0.000000 12.256068
RightHandThumb1 -24.326973 -0.000000 -32.862282
LeftUpLeg -41.459789 14.270099 9.988291
LeftLeg 28.541816 -0.000000 -0.000000
LeftFoot -18.261051 15.756229 3.191243
LeftToeBase 4.321133 -0.000000 -0.000000
RightUpLeg -164.448540 -18.140307 27.072696
RightLeg 126.010070 -0.000000 -0.000000
RightFoot 38.982276 -20.485690 11.147954
RightToeBase 43.932472 -0.000000 -0.000000
1390
root 2.637352 32.719441 -5.611282 52.826959 -42.560620 -33.211891
Spine -34.719859 -12.736918 28.252652
Head 1.340545 -8.983583 6.751579
LeftShoulder 9.224012 41.482904 31.300843
LeftArm 88.761303 25.246339 -37.190076
LeftForeArm -2.269347 -0.000000 57.353411
LeftHand 50.158391 -0.000000 -12.140581
LeftHandThumb1 -26.253704 0.000000 33.147579
RightShoulder -4.670786 -47.246447 -16.986526
RightArm 62.988021 -4.980346 76.303372
RightForeArm 24.886551 -0.000000 81.825918
RightHand 7.006042 -0.000000 12.084891
RightHandThumb1 -24.326973 -0.000000 -32.862282
LeftUpLeg -41.602482 14.431565 10.098213
LeftLeg 28.702505 -0.000000 -0.000000
LeftFoot -18.468417 15.500860 2.561708
LeftToeBase 6.903025 -0.000000 -0.000000
RightUpLeg -164.414283 -18.189682 27.190507
RightLeg 125.586505 -0.000000 -0.000000
RightFoot 38.924250 -20.621359 11.229117
RightToeBase 43.913599 -0.000000 -0.000000
1391
root 2.640936 32.726949 -5.617976 53.146082 -42.455757 -33.566632
Spine -34.822252 -12.627884 28.491199
Head 1.429162 -9.013667 6.563327
LeftShoulder 9.263719 41.439961 31.218674
LeftArm 88.942792 25.307188 -36.860785
LeftForeArm -4.027389 0.000000 57.309448
LeftHand 50.513820 -0.000000 -12.538918
LeftHandThumb1 -26.253704 0.000000 33.147579
RightShoulder -4.481380 -47.201157 -17.112016
RightArm 62.951119 -4.926860 76.286371
RightForeArm 24.804668 -0.000000 81.735023
RightHand 7.252481 -0.000000 11.822034
RightHandThumb1 -24.326973 -0.000000 -32.862282
LeftUpLeg -41.808439 14.669803 10.317453
LeftLeg 29.038451 -0.000000 -0.000000
LeftFoot -18.737890 15.331154 2.031172
LeftToeBase 6.652299 -0.000000 -0.000000
RightUpLeg -164.334259 -18.104385 27.382493
RightLeg 125.094870 -0.000000 -0.000000
RightFoot 38.805418 -20.780153 11.395973
RightToeBase 43.888035 -0.000000 -0.000000
1392
root 2.642473 32.731048 -5.631840 53.438050 -42.401658 -33.898660
Spine -34.892903 -12.525247 28.615639
Head 1.490800 -9.116670 6.490218
LeftShoulder 9.370889 41.433155 31.283032
LeftArm 89.133201 25.398307 -36.599135
LeftForeArm -6.496190 -0.000000 57.403076
LeftHand 50.319112 -0.000000 -12.092956
LeftHandThumb1 -26.253704 0.000000 33.147579
RightShoulder -4.298506 -47.184039 -17.176545
RightArm 62.907605 -4.856601 76.232376
RightForeArm 24.823868 -0.000000 81.683460
RightHand 7.477338 -0.000000 11.549289
RightHandThumb1 -24.326973 -0.000000 -32.862282
LeftUpLeg -42.057170 15.027450 10.454562
LeftLeg 29.406751 -0.000000 -0.000000
LeftFoot -18.918377 14.909328 1.508479
LeftToeBase 6.092791 -0.000000 -0.000000
RightUpLeg -164.237811 -17.944276 27.467721
RightLeg 124.517194 -0.000000 -0.000000
RightFoot 38.778093 -21.045078 11.363004
RightToeBase 43.903740 -0.000000 -0.000000
1393
root 2.638853 32.731458 -5.651147 53.652744 -42.287780 -34.231547
Spine -34.890346 -12.493090 28.741831
Head 1.487642 -9.225616 6.495142
LeftShoulder 9.501461 41.348301 31.402906
LeftArm 89.131899 25.540117 -36.693422
LeftForeArm -7.494748 0.000000 57.534638
LeftHand 50.011105 -0.000000 -11.310731
LeftHandThumb1 -26.253704 0.000000 33.147579
RightShoulder -4.141025 -47.202547 -17.196899
RightArm 62.875154 -4.774158 76.178145
RightForeArm 24.940084 -0.000000 81.680542
RightHand 7.748675 -0.000000 11.264515
RightHandThumb1 -24.326973 -0.000000 -32.862282
LeftUpLeg -42.302612 15.338854 10.677406
LeftLeg 29.883358 -0.000000 -0.000000
LeftFoot -19.101918 14.478287 1.178670
LeftToeBase 5.481710 -0.000000 -0.000000
RightUpLeg -164.102608 -17.890464 27.547427
RightLeg 123.926694 -0.000000 -0.000000
RightFoot 38.741133 -21.179894 11.407136
RightToeBase 43.845191 -0.000000 -0.000000
1394
root 2.634245 32.729667 -5.672520 53.879750 -42.190860 -34.659738
Spine -34.817028 -12.463254 28.888704
Head 1.512483 -9.287780 6.496418
LeftShoulder 9.673612 41.274179 31.562030
LeftArm 89.017861 25.636961 -37.022195
LeftForeArm -6.734672 -0.000000 57.622016
LeftHand 50.006629 -0.000000 -10.451238
LeftHandThumb1 -26.253704 0.000000 33.147579
RightShoulder -3.891603 -47.284205 -17.256520
RightArm 62.900494 -4.645169 76.159291
RightForeArm 25.046850 -0.000000 81.698887
RightHand 7.980040 0.000000 10.997799
RightHandThumb1 -24.326973 -0.000000 -32.862282
LeftUpLeg -42.495316 15.715667 10.944719
LeftLeg 30.402969 -0.000000 -0.000000
LeftFoot -19.332875 14.097349 0.796661
LeftToeBase 5.425502 -0.000000 -0.000000
RightUpLeg -163.882726 -17.797361 27.631464
RightLeg 123.248647 -0.000000 -0.000000
RightFoot 38.634450 -21.399757 11.573672
RightToeBase 43.929228 -0.000000 -0.000000
